<svg xmlns="http://www.w3.org/2000/svg" width="150" height="60" viewBox="0 0 150 60">
  <g id="Group_488" data-name="Group 488" transform="translate(-350 -1132)">
    <rect id="Rectangle_4850" data-name="Rectangle 4850" width="150" height="60" transform="translate(350 1132)" fill="none"/>
    <g id="Group_486" data-name="Group 486" transform="translate(350 1153)">
      <path id="Path_1336" data-name="Path 1336" d="M250.438,149.226v-2.259l2.361-.226a2.1,2.1,0,0,0,1.218-.98l5.714-9.263a.89.89,0,0,0-.609-1.431l-2.971-.3v-2.334h13.026a1.855,1.855,0,0,1,1.524.979l7.618,11.524c.609.9,1.066,1.657,1.828,1.732l2.438.227v2.334h-14.7v-2.259l1.828-.226c.914-.076,1.676-.528.914-1.582l-.686-1.055H259.5l-.839,1.28c-.457.753,0,1.28.763,1.356l1.9.226v2.259Zm10.893-8.134h6.628l-3.352-5.121-3.276,5.121Z" transform="translate(-132.586 -131.829)" fill="#ec1b2f"/>
      <path id="Path_1337" data-name="Path 1337" d="M214.433,132.432h-16.76v2.334l2.057.151a1.277,1.277,0,0,1,1.143,1.431v9.038c0,.678-.3,1.28-.99,1.356l-2.209.3v2.184h16.76c7.77,0,11.122-3.69,11.122-8.66,0-4.369-3.352-8.134-11.122-8.134Zm-2.591,13.556H207.5V135.67h4.342c4.19,0,5.866.9,5.866,5.2,0,4.218-1.676,5.121-5.866,5.121Z" transform="translate(-106.332 -131.829)" fill="#ec1b2f"/>
      <path id="Path_1338" data-name="Path 1338" d="M15.879,149.226H29.515v-2.259l-2.361-.226c-.533-.076-1.067-.377-1.067-1.506v-2.712H36.6v2.561c0,.753-.152,1.506-1.067,1.581l-2.361.227v2.334H46.808v-2.334l-2.438-.227a1.23,1.23,0,0,1-.99-1.355v-8.736c0-.9.3-1.507,1.067-1.582l2.361-.226v-2.334H33.172v2.259l2.361.3c.838.076,1.067.754,1.067,1.582v2.561H26.087V136.5c0-.979.457-1.431,1.143-1.507l2.285-.226v-2.334H15.955v2.334l2.286.226c.838.076,1.143.754,1.066,1.582v8.51c0,.979-.229,1.581-1.143,1.657l-2.286.226v2.259Z" transform="translate(-15.879 -131.829)" fill="#ec1b2f"/>
      <path id="Path_1339" data-name="Path 1339" d="M78.65,140.181c0-5.272,4.343-8.962,13.941-8.962,9.523,0,13.865,3.691,13.865,8.962,0,5.347-4.342,9.038-13.865,9.038-9.6,0-13.941-3.69-13.941-9.038Zm13.941-5.8c-3.885,0-6.094,1.431-6.094,5.8,0,4.444,2.209,5.874,6.094,5.874,3.809,0,6.018-1.43,6.018-5.874,0-4.368-2.209-5.8-6.018-5.8Z" transform="translate(-47.111 -131.218)" fill="#ec1b2f"/>
      <path id="Path_1340" data-name="Path 1340" d="M135.508,149.226h10.818v-2.259l-2.285-.226c-.685-.076-1.067-.6-1.067-1.431V136.8l8.99,11.75a1.778,1.778,0,0,0,1.447.677h8.532V136.5c0-.6.152-1.431.989-1.507l2.362-.226v-2.334H154.477v2.259l2.362.3c.838.076.99.829.99,1.582v8.284l-8.913-11.674a1.848,1.848,0,0,0-1.448-.753H135.508v2.334l2.21.226c.838.151,1.143.528,1.143,1.582v8.51c0,1.054-.3,1.506-1.143,1.657l-2.21.226v2.259Z" transform="translate(-75.401 -131.829)" fill="#ec1b2f"/>
    </g>
  </g>
</svg>
