<svg id="ico_360" xmlns="http://www.w3.org/2000/svg" width="24" height="24" viewBox="0 0 24 24">
  <rect id="Rectangle_20" data-name="Rectangle 20" width="24" height="24" fill="none"/>
  <g id="Group_13431" data-name="Group 13431" transform="translate(2.4 2.4)">
    <path id="Path_3811" data-name="Path 3811" d="M364,656.488a.492.492,0,0,1-.531-.508h-.71a1.241,1.241,0,0,0,2.476-.011.929.929,0,0,0-.5-.886.831.831,0,0,0,.448-.8,1.192,1.192,0,0,0-2.378-.006h.711a.479.479,0,1,1,.957.027.447.447,0,0,1-.492.487h-.1v.618h.1a.539.539,0,0,1,.022,1.077Z" transform="translate(-357.373 -645.495)" fill="#fff"/>
    <path id="Path_3812" data-name="Path 3812" d="M382.107,653.37l-.82,1.684a2.4,2.4,0,0,0-.328,1.039,1.136,1.136,0,0,0,1.213,1.2,1.147,1.147,0,0,0,1.214-1.214,1.067,1.067,0,0,0-1.022-1.154.775.775,0,0,0-.29.049l.809-1.607Zm.065,2.148a.573.573,0,1,1-.5.569A.508.508,0,0,1,382.172,655.518Z" transform="translate(-372.57 -645.662)" fill="#fff"/>
    <path id="Path_3813" data-name="Path 3813" d="M399.189,654.329v1.64a1.184,1.184,0,0,0,2.367,0v-1.64a1.184,1.184,0,0,0-2.367,0Zm1.657.011v1.623a.475.475,0,1,1-.946,0V654.34a.476.476,0,1,1,.946,0Z" transform="translate(-387.793 -645.495)" fill="#fff"/>
    <path id="Path_3814" data-name="Path 3814" d="M415.483,653.256a.916.916,0,0,0,0,.984.518.518,0,0,0,.391.155.525.525,0,0,0,.394-.155.916.916,0,0,0,0-.984.524.524,0,0,0-.394-.156A.518.518,0,0,0,415.483,653.256Zm.612.491a.435.435,0,0,1-.073.308.2.2,0,0,1-.148.056.194.194,0,0,1-.146-.056.435.435,0,0,1-.073-.308.428.428,0,0,1,.073-.306.194.194,0,0,1,.146-.056.2.2,0,0,1,.148.056A.428.428,0,0,1,416.1,653.746Z" transform="translate(-401.281 -645.436)" fill="#fff"/>
    <path id="Path_3815" data-name="Path 3815" d="M346.231,617.029a6.383,6.383,0,1,1-2.3-5.529l-1.171.553,5.556,3.849.555-6.736-1.652.781a9.789,9.789,0,1,0,2.069,9.182Z" transform="translate(-330.091 -606.632)" fill="#fff"/>
  </g>
</svg>
