<svg id="ico_price" xmlns="http://www.w3.org/2000/svg" width="24" height="24" viewBox="0 0 24 24">
  <rect id="Rectangle_20" data-name="Rectangle 20" width="24" height="24" fill="none"/>
  <path id="Path_3810" data-name="Path 3810" d="M1365.721,1071h-12.3a1.656,1.656,0,0,0-1.651,1.658v16.183a1.656,1.656,0,0,0,1.651,1.658h12.3a1.656,1.656,0,0,0,1.651-1.658v-16.183A1.656,1.656,0,0,0,1365.721,1071Zm-9.166,16.984a.527.527,0,0,1-.569.515h-1.879a.527.527,0,0,1-.569-.515v-1.658a.572.572,0,0,1,.569-.572h1.879a.572.572,0,0,1,.569.572Zm0-3.66a.539.539,0,0,1-.569.572h-1.879a.539.539,0,0,1-.569-.572v-1.6a.572.572,0,0,1,.569-.572h1.879a.572.572,0,0,1,.569.572Zm0-3.6a.539.539,0,0,1-.569.572h-1.879a.539.539,0,0,1-.569-.572v-1.6a.572.572,0,0,1,.569-.572h1.879a.572.572,0,0,1,.569.572Zm4.554,7.262a.562.562,0,0,1-.569.515H1358.6a.563.563,0,0,1-.569-.515v-1.658a.614.614,0,0,1,.569-.572h1.936a.613.613,0,0,1,.569.572Zm0-3.66a.572.572,0,0,1-.569.572H1358.6a.572.572,0,0,1-.569-.572v-1.6a.614.614,0,0,1,.569-.572h1.936a.613.613,0,0,1,.569.572Zm0-3.6a.572.572,0,0,1-.569.572H1358.6a.572.572,0,0,1-.569-.572v-1.6a.614.614,0,0,1,.569-.572h1.936a.613.613,0,0,1,.569.572Zm4.5,7.262a.511.511,0,0,1-.512.515h-1.936a.563.563,0,0,1-.569-.515v-5.2a.572.572,0,0,1,.569-.572h1.936a.527.527,0,0,1,.512.572Zm0-7.262a.527.527,0,0,1-.512.572h-1.936a.572.572,0,0,1-.569-.572v-1.6a.614.614,0,0,1,.569-.572h1.936a.563.563,0,0,1,.512.572Zm.171-4.689a.571.571,0,0,1-.569.572h-11.273a.527.527,0,0,1-.512-.572v-2.516a.511.511,0,0,1,.512-.515h11.273a.562.562,0,0,1,.569.515Z" transform="translate(-1347.572 -1068.6)" fill="#fff"/>
</svg>
