<svg xmlns="http://www.w3.org/2000/svg" width="630" height="328" viewBox="0 0 630 328">
  <g id="Group_581" data-name="Group 581" transform="translate(-665 -165)">
    <rect id="Rectangle_4876" data-name="Rectangle 4876" width="630" height="328" transform="translate(665 165)" fill="#3c7db4"/>
    <g id="Group_576" data-name="Group 576" transform="translate(710.324 201.259)">
      <g id="Group_568" data-name="Group 568">
        <path id="Path_2987" data-name="Path 2987" d="M-764.5-343.912c-4.775.848-9.666,1.153-14.37,2.274-10.462,2.492-21.984,2.936-27.07,15.551-2.062,5.113-.365,12.437,5.024,13.81,3.531.9,7.349.66,11,.928v-8.659c.149,9.451,4.547,15.382,14.178,15.253,8.474-.114,11.954-6.176,12.834-14.166a10.132,10.132,0,0,1,.434,3.323c-.13,2.413,1.093,3.154,3.285,3.041,6.52-.336,13.047-.558,19.566-.923,15.4-.86,30.795-1.728,46.182-2.735,1.939-.127,3.822-1.106,5.847-1.727,2.116,4.913,5.64,8.872,12.173,8.934,6.456.062,10.245-3.461,12.684-9.131a4.57,4.57,0,0,1,2.8-2.218c4.719-1.144,9.493-2.063,14.261-2.991,6.911-1.346,9.986-7.155,7.373-13.73-1.656-4.166-3.484-8.343-4.41-12.693-.611-2.872-1.77-3.488-4.231-3.319-7.486.514-14.545-1.067-21.513-3.872-4.7-1.89-10.63-1.692-14.438-4.553-5.206-3.914-9.818-.716-14.563-.89-13.025-.476-26.336-.838-38.7,3.731-8.7,3.214-16.595,8.655-24.856,13.089A12.784,12.784,0,0,1-764.5-343.912ZM-799-317.175l-4.312-1.7-.139-.945c1.016-.438,2.267-1.464,2.991-1.171,1.006.409,1.617,1.808,2.4,2.782Zm-.9-10.9c1.165-4.531,6.614-6.925,11.8-6.217l.391,1.071ZM-776.2-309.4c-4.216.053-8.029-3.983-7.979-8.445a7.71,7.71,0,0,1,8.056-7.7,7.9,7.9,0,0,1,7.889,7.992A8.5,8.5,0,0,1-776.2-309.4Zm119.521-37.6c3-.311,5.991-.669,8.993-.917,3.043-.251,2.929,1.943,3.015,4.037.1,2.5-1.775,2.511-3.112,2.08-3.157-1.014-6.179-2.455-9.256-3.724Q-656.863-346.268-656.682-347.006Zm-18.435,32.689c-4.792-.035-8.015-3.131-8-7.68a7.594,7.594,0,0,1,7.918-7.792c4.824-.007,7.773,2.922,7.77,7.718C-667.429-317.17-670.293-314.282-675.117-314.317ZM-686.945-357.4l7.693,2.741c-1.615,5.609-2.541,6.343-7.693,6.268Zm12.065,21.174c6.077.122,11.936,4.06,12.1,10.169-6.369-10.82-14.022-11.394-24.427-1.833C-686.229-332.6-680.8-336.348-674.88-336.23Zm-38.829-20.8c.059-.718,1.889-1.84,2.9-1.834,6.152.031,12.305.273,18.446.642.632.038,1.627,1.339,1.7,2.122.22,2.479.081,4.991.081,8.054l-23.259,2.189C-713.846-349.746-714.008-353.406-713.709-357.027Zm-22.755,2.437c4.672-1.862,9.821-2.528,14.776-3.644,2.295-.516,3.116.756,2.722,2.836a65.426,65.426,0,0,1-2.04,8.654,3.893,3.893,0,0,1-2.8,2c-7.632.8-15.286,1.393-22.92,2.048a1.429,1.429,0,0,1-.144-.334C-747.8-350.867-741.538-352.567-736.464-354.59Z" transform="translate(877.967 468.126)" fill="#fff"/>
        <path id="Path_2988" data-name="Path 2988" d="M-833.707-409.99c6.64.138,13.285.037,19.928.037v.044c6.643,0,13.287.1,19.928-.038,3.546-.071,4.293-1.514,2.576-4.486-6.446-11.158-12.886-22.321-19.41-33.434-2.676-4.558-3.847-4.565-6.543-.043q-9.715,16.294-19.264,32.689C-838.569-411.673-837.777-410.075-833.707-409.99Zm21.5-5.932c-.075.754-1.078,1.638-1.882,1.985-.325.14-1.642-.948-1.7-1.553-.073-.784.664-1.645,1.392-3.2C-813.26-417.328-812.144-416.566-812.208-415.922Zm-3.6-21.457a2.131,2.131,0,0,1,1.353-1.585c.54-.043,1.666.823,1.651,1.261-.174,5.22-.509,10.435-.832,15.65-.008.143-.357.266-1.543,1.091-.2-3.052-.4-5.439-.491-7.829C-815.79-431.653-815.894-434.52-815.813-437.38Z" transform="translate(886.834 493.287)" fill="#fff"/>
        <path id="Path_2989" data-name="Path 2989" d="M-865.482-337.9q49.658-7.382,99.3-14.866l-.077-1.112H-867.843q-.009.655-.016,1.31h82.347q.012.464.023.927L-867.9-339.63l-.019,1.143A6.927,6.927,0,0,0-865.482-337.9Z" transform="translate(895.558 465.336)" fill="#fff"/>
        <path id="Path_2994" data-name="Path 2994" d="M-857.621-325.659c-.779.673-2.029,1.225-2.234,2.044a19.488,19.488,0,0,0-.1,4.639l-.5.046a66.44,66.44,0,0,0,1.222,7.376c.216.8,1.577,1.279,2.414,1.905.523-.925,1.5-1.856,1.489-2.776-.043-3.682-.3-7.369-.694-11.031C-856.116-324.239-857.069-324.927-857.621-325.659Z" transform="translate(893.413 457.243)" fill="#fff"/>
        <path id="Path_2995" data-name="Path 2995" d="M-846.416-324.381c-1.046.52-2.632.787-3.016,1.619-.608,1.315-.411,3.008-.549,4.486.185,1.61.054,3.276.641,4.627.429.987,1.8,1.558,2.754,2.315.5-1.028,1.359-2.038,1.413-3.089a51.88,51.88,0,0,0-.285-7.357A10.538,10.538,0,0,0-846.416-324.381Z" transform="translate(890.396 456.874)" fill="#fff"/>
        <path id="Path_2996" data-name="Path 2996" d="M-835.18-317.816a8.1,8.1,0,0,0,.118-2.838,13.63,13.63,0,0,0-1.828-2.917c-.88.863-2.407,1.655-2.511,2.6a25.94,25.94,0,0,0,.374,7.1,2.756,2.756,0,0,0,2.166,1.659c.7-.065,1.614-1.207,1.86-2.048a13.122,13.122,0,0,0,.078-3.559Z" transform="translate(887.383 456.64)" fill="#fff"/>
        <path id="Path_2997" data-name="Path 2997" d="M-825.03-319.98a27.819,27.819,0,0,0-2.062-2.958c-.773.838-1.976,1.567-2.219,2.539a8.776,8.776,0,0,0,.114,4.538c.292.933,1.584,1.549,2.428,2.307A15.313,15.313,0,0,0-825-316.128a5.978,5.978,0,0,0-.056-2.268C-825.039-318.823-824.791-319.534-825.03-319.98Z" transform="translate(884.518 456.456)" fill="#fff"/>
        <path id="Path_2998" data-name="Path 2998" d="M-819.074-318.831c.089,1.264,1.918,3.268,3.085,3.34,1.116.069,3.174-1.83,3.317-3.046.146-1.233-1.542-2.687-3.065-5.023C-817.377-321.376-819.16-320.036-819.074-318.831Z" transform="translate(881.503 456.634)" fill="#fff"/>
        <path id="Path_2999" data-name="Path 2999" d="M-906.726-510.166v213.928h249.281V-510.166Zm243.583,208.223H-901.028V-356.35a6.4,6.4,0,0,1,2.067-.33,93.685,93.685,0,0,0,13.394-1.7c6.17-1.063,7.7-7.388,5.317-13.291-1.795-4.446-2.212-8.932-3.272-13.373-.489-2.049-1.179-2.836-3.187-2.935-3.671-.182-7.335-.536-11-.869a8.062,8.062,0,0,1-3.321-.826V-504.461h237.885ZM-897.707-380.28l.314-2.061a88.875,88.875,0,0,1,9.629-.195c.717.052,1.751,1.995,1.79,3.1.029.816-1.537,2.516-2.023,2.388C-891.289-377.913-894.482-379.158-897.707-380.28Z" transform="translate(906.726 510.166)" fill="#fff"/>
        <text id="Brake" transform="translate(50.676 96.74)" fill="#fff" font-size="12" font-family="Verdana-Bold, Verdana" font-weight="700" letter-spacing="0.04em"><tspan x="0" y="0">Brake</tspan></text>
        <text id="CMBS_" data-name="CMBS " transform="translate(124.676 249.74)" fill="#fff" font-size="27" font-family="Verdana-Bold, Verdana" font-weight="700" letter-spacing="0.04em"><tspan x="-49" y="0">CMBS </tspan></text>
      </g>
      <g id="Group_570" data-name="Group 570" transform="translate(290.072)">
        <g id="Group_564" data-name="Group 564" transform="translate(0)">
          <path id="Path_3000" data-name="Path 3000" d="M-297.935-504.731c0-5.385.057-5.407-5.2-5.408q-119.658-.02-239.315-.026c-4.379,0-4.752.432-4.751,5q.014,101.809.016,203.619c0,5.3-.015,5.3,5.319,5.3h119.128q59.741,0,119.481,0c4.921,0,5.288-.349,5.292-5.245q.035-44.983.045-89.966Q-297.916-448.091-297.935-504.731Zm-9.316,204.515q-116.117-.121-232.235-.072c-.912,0-1.823-.121-2.959-.2v-52.127l8.212-1.388a10.838,10.838,0,0,1,.494,1c1.825,4.31,4.847,6.885,9.626,7.246,5.139.388,9.037-1.609,11.409-6.155a5.4,5.4,0,0,1,5.016-3.387c4.776-.419,9.473-1.684,14.225-2.465,3.291-.54,4.919-2.643,5.525-5.7a16.324,16.324,0,0,0-1.152-10.388c-1.5-3.323-1.669-7.3-2.191-11.029-.283-2.013-1.121-3.151-3.106-3.086-10.156.33-18.905-4.332-27.894-8.086-2.93-1.224-6.422-1.264-8.495-4.587-.5-.8-3.344-.588-4.894-.115-4.459,1.361-7.2.481-7.151-4.812.3-32.259.154-64.522.165-96.785,0-.934.1-1.869.16-3.061h238.766a19.386,19.386,0,0,1,.29,2.381q.031,52.695.023,105.389c0,3.8-.451,4.108-3.791,2.422-3.62-1.826-7.147-3.841-10.759-5.684a3.615,3.615,0,0,0-2.385-.373c-6.6,1.871-13.167-.309-19.767-.112-8.362.25-16.641.476-24.9,2.12-3.08.612-6.473-.64-9.725-.641q-52.311-.015-104.624.109c-1.65,0-3.3-.071-4.946.024a9.21,9.21,0,0,0-2.116.641q.061.535.121,1.069h100.99l.03,1.095c-5.81.566-11.631,1.025-17.426,1.723-7.64.918-15.253,2.069-22.888,3.032-5.7.72-11.426,1.284-17.136,1.946q-10.138,1.176-20.268,2.405c-6.748.829-13.495,1.67-20.229,2.6a21.6,21.6,0,0,0-3.66,1.169q.2.923.407,1.847c38.2-3.915,76.1-10.619,114.35-13.644-5.77,3.15-11.294,6.988-17.388,9.237-4.972,1.835-10.656,1.6-15.967,2.6-4.842.91-9.662,2.049-14.394,3.431-7.139,2.085-10.312,8.335-12.1,14.585-1.608,5.608,1.226,11.419,8.058,12.165a81.755,81.755,0,0,0,8.594.049c4.148,10.139,17.665,11.89,23.167-.164a47.858,47.858,0,0,0,6.416.886q29.162.081,58.323-.033a44.846,44.846,0,0,0,5.805-.817c3.4,7.409,9.317,10.206,17.9,6.8.125,1.206.3,2.093.3,2.98.019,13.263-.068,26.527.082,39.788C-303.318-301.34-304.032-300.213-307.251-300.216ZM-542.283-385.16V-396.6c2.278,1.416,6.73-.971,6.542,3.373C-536.076-385.467-534.112-385.319-542.283-385.16Zm16.406-4.033c-.855,2.416-2.614,4.117-5.357,3.538-.675-.143-1.4-1.625-1.517-2.568a57.435,57.435,0,0,1-.07-6.574,43.1,43.1,0,0,1,5.926,2.859A3.129,3.129,0,0,1-525.876-389.193Zm2.9,22.147c4.053.128,6.985,3.637,6.936,8.3-.048,4.614-3.1,7.816-7.343,7.7-4.133-.109-6.835-3.442-6.724-8.293C-530-363.716-526.811-367.167-522.972-367.046Zm18.665-13.137.333-2.081a67.416,67.416,0,0,1,8.772.168c.618.081,1.318,2.313,1.29,3.537-.015.67-1.706,2.02-2.241,1.84C-498.942-377.657-501.6-378.988-504.307-380.183Zm194.4,13.074c3.976.154,6.538,3.439,6.446,8.266-.1,5.193-2.367,7.858-6.643,7.8-4.316-.054-7.149-3.247-7.1-8C-317.152-363.555-313.8-367.259-309.906-367.109Zm-8.963-18.805c-.518-.137-.811-2-.817-3.073a50.525,50.525,0,0,1,.57-5.479c1.595.686,2.671,1.105,3.711,1.6,3.483,1.67,3.779,4.41.5,6.541A5.436,5.436,0,0,1-318.869-385.914Zm-15.276.8a57.707,57.707,0,0,1-7.753.285,3.623,3.623,0,0,1-2.52-2.378c-1.113-8.965-.306-9.854,8.477-9.553a80.7,80.7,0,0,1,10.513.937c.931.155,1.63,1.751,2.422,2.7.053.064-.021.231-.021.35-.01,7.493-.009,7.495-7.231,7.567-1.3.013-2.591,0-3.887,0Zm-14.835-11.2a79.627,79.627,0,0,1-2.068,9.681c-.372,1.12-2.239,2.295-3.529,2.432-4.907.523-9.86.6-14.791.92-1.7.112-2.922.031-3.27-2.168-.17-1.077-1.282-2-2.124-3.222C-368.828-394.421-356.018-398.222-348.98-396.316Zm-48.055,37.486c-.115,5.005-2.739,7.853-7.206,7.816-4.086-.034-7.045-3.549-6.924-8.227.11-4.256,3.445-7.918,7.167-7.871C-399.968-367.062-396.929-363.446-397.035-358.83Zm-28.617-13.192c3.066-4.436,7.061-4.225,11.376-5C-417.184-372.8-421.02-372.617-425.651-372.022Zm.716,11.75-4.154-1.7q.282-.836.565-1.673a21.913,21.913,0,0,1,3.682,1.239C-424.582-362.273-424.889-361.014-424.936-360.272Z" transform="translate(547.197 510.166)" fill="#fff"/>
          <path id="Path_3001" data-name="Path 3001" d="M-442.116-395.765c5.763.076,11.528.018,17.292.018v.045c5.882,0,11.765.065,17.645-.022,4.211-.062,5.278-1.679,3.393-5.315q-8.94-17.241-18.1-34.365c-2.1-3.914-3.81-3.824-5.868.041-5.976,11.217-11.9,22.461-17.872,33.681C-447.858-397.49-446.938-395.827-442.116-395.765Zm17.235-30.421c1.856,2.892,1.643,15.683-.121,18.018C-426.633-410.366-426.675-423.441-424.88-426.186Z" transform="translate(518.3 489.563)" fill="#fff"/>
          <path id="Path_3002" data-name="Path 3002" d="M-374.852-399.4c2.706-.45,4.343,1.187,6.04,2.922,1.645,1.683,3.471,3.184,5.219,4.765l.889-.582v-26.724l-.9-.6c-2.064,1.861-4.028,3.857-6.231,5.53-1.221.928-2.891,1.226-4.267,1.979-1.165.637-3.132,1.522-3.129,2.291a79.932,79.932,0,0,0,1.056,10.224C-376.161-399.465-375.291-399.328-374.852-399.4Z" transform="translate(498.287 484.199)" fill="#fff"/>
          <path id="Path_3003" data-name="Path 3003" d="M-350.715-406.12c.547.117,1.156.453,1.632.317,5.181-1.484,10.354-3,15.474-4.679.332-.109.525-1.8.207-2.471s-1.357-1.018-2.628-1.876c2.26-1.02,4.006-1.652,5.593-2.568a48.483,48.483,0,0,0,4.258-3.073l-.764-1.254-17.743,6.045,2.882,3.625-9.339,4.755Z" transform="translate(490.778 484.798)" fill="#fff"/>
          <path id="Path_3004" data-name="Path 3004" d="M-452.054-325.113l-2.31-2.868c-.8.9-2.277,1.8-2.285,2.706-.043,5.326.118,10.667.569,15.971.084.984,1.812,1.823,2.781,2.729.441-1.183,1.308-2.388,1.249-3.544-.251-4.838-.778-9.662-1.205-14.492Z" transform="translate(521.142 457.913)" fill="#fff"/>
          <path id="Path_3005" data-name="Path 3005" d="M-442.019-323.567a20.381,20.381,0,0,0-1.747-3.525c-.756.961-2.127,1.9-2.163,2.887a114.182,114.182,0,0,0,.261,13.431c.086,1.047,1.692,1.966,2.6,2.944.558-1.125,1.6-2.262,1.58-3.374-.07-3.181-.576-6.351-.823-8.706C-442.14-321.7-441.777-322.722-442.019-323.567Z" transform="translate(518.08 457.657)" fill="#fff"/>
          <path id="Path_3006" data-name="Path 3006" d="M-348.061-393.031c2.214.788,4.229,1.663,6.327,2.207,2.136.554,4.788,3.168,6.174-1.146.076-.236,1.454-.115,2.212-.035.952.1,1.891.33,2.835.5C-334.135-396.878-344.4-397.539-348.061-393.031Z" transform="translate(489.892 477.419)" fill="#fff"/>
          <path id="Path_3007" data-name="Path 3007" d="M-431.142-318.745a31.106,31.106,0,0,0-.069-4.613c-.108-.716-1-1.884-1.456-1.848-.845.065-2.342.874-2.338,1.363.034,4.449.242,8.9.681,13.33.051.516,1.788,1.065,2.781,1.151.283.024,1.04-1.551.991-2.355-.142-2.34-.583-4.661-.907-6.988Z" transform="translate(514.911 457.113)" fill="#fff"/>
          <path id="Path_3008" data-name="Path 3008" d="M-421.779-324.3c-.826-.027-2.359,1.014-2.419,1.7a82.279,82.279,0,0,0-.095,9.118c.036,1.581-.226,3.915,2.31,3.152.95-.286,1.845-2.409,1.9-3.732a54.918,54.918,0,0,0-.652-7.653l.927-.434C-420.461-322.921-421.1-324.281-421.779-324.3Z" transform="translate(511.852 456.852)" fill="#fff"/>
          <path id="Path_3009" data-name="Path 3009" d="M-412.19-323.176c-.712.746-1.724,1.377-2.057,2.269a9.508,9.508,0,0,0-.249,3.05c.1,1.672-.135,3,.329,4.006.426.922,1.6,1.489,2.446,2.212.519-.884,1.411-1.738,1.482-2.657a27.927,27.927,0,0,0-.232-6.349C-410.612-321.556-411.592-322.336-412.19-323.176Z" transform="translate(509.013 456.527)" fill="#fff"/>
          <path id="Path_3010" data-name="Path 3010" d="M-401.588-317.423a7.251,7.251,0,0,0-.055-2.47,14.624,14.624,0,0,0-1.75-2.679c-.734.739-1.967,1.4-2.1,2.235a17.077,17.077,0,0,0,.1,5.627c.135.751,1.327,1.308,2.038,1.953a9.859,9.859,0,0,0,1.754-2.2,6.885,6.885,0,0,0,.06-2.465Z" transform="translate(506.473 456.352)" fill="#fff"/>
          <path id="Path_3011" data-name="Path 3011" d="M-393.564-321.894c-.835,1.332-2.434,2.752-2.3,3.971.145,1.286,1.948,2.378,3.027,3.555,1.085-1.162,2.932-2.254,3.041-3.5s-1.516-2.658-2.382-4Z" transform="translate(503.649 456.155)" fill="#fff"/>
        </g>
        <path id="Path_3012" data-name="Path 3012" d="M-303.615-504.461v202.519H-541.5V-504.461h237.885m5.7-5.7H-547.2v213.928h249.28V-510.166Z" transform="translate(547.197 510.166)" fill="#fff"/>
        <text id="FCW" transform="translate(124.604 249.74)" fill="#fff" font-size="27" font-family="Verdana-Bold, Verdana" font-weight="700" letter-spacing="0.04em"><tspan x="-34" y="0">FCW</tspan></text>
      </g>
    </g>
  </g>
</svg>
