<svg id="logo_fit" xmlns="http://www.w3.org/2000/svg" width="310" height="119" viewBox="0 0 310 119">
  <path id="Path_72" data-name="Path 72" d="M155.654,1324.149c-.241-.009-.483,0-.724,0l-69.287,0c-.725,0-1.45.021-2.172-.015a9.239,9.239,0,0,1-7.107-3.708,10.272,10.272,0,0,1-1.953-6.738c.053-5.9,4.029-9.915,9.923-9.916q21.768,0,43.536,0h42.892c.617,0,1.235.017,1.851-.008a2.924,2.924,0,0,0,2.916-3.012c.015-1.4.006-2.792,0-4.187a2.911,2.911,0,0,0-3.25-3.222q-49.652,0-99.3,0a20.916,20.916,0,0,0-9.061,1.914c-8.956,4.251-13.794,11.388-13.9,21.316-.167,15.812-.046,31.626-.044,47.439,0,2.886,1.658,4.534,4.554,4.535q7.646,0,15.29,0c2.96,0,4.6-1.625,4.6-4.565q0-8.738,0-17.478a9.922,9.922,0,0,1,10.513-10.234q34.6.023,69.208.009c.509,0,1.019.01,1.528,0a2.909,2.909,0,0,0,3.009-3q.046-3.019,0-6.04A2.935,2.935,0,0,0,155.654,1324.149Z" transform="translate(-49.929 -1293.305)" fill="#fff"/>
  <path id="Path_73" data-name="Path 73" d="M413.954,1296.722c-.008-2.239-1.145-3.386-3.358-3.386H293.9c-.4,0-.807-.017-1.207.016a2.739,2.739,0,0,0-2.628,2.816c-.019,1.583-.024,3.168,0,4.751a2.825,2.825,0,0,0,2.729,2.836c.347.022.7.01,1.045.011q16.9,0,33.8.009a14.071,14.071,0,0,1,2.8.217,10.013,10.013,0,0,1,8.058,9.99q.014,25.05.006,50.1c0,2.963,1.493,4.453,4.457,4.456q7.847.009,15.693,0c2.744,0,4.282-1.554,4.284-4.307q.006-6.846,0-13.693,0-18.243,0-36.487a10.145,10.145,0,0,1,10.393-10.29q18.63.015,37.261,0a3.058,3.058,0,0,0,3.357-3.338Q413.962,1298.575,413.954,1296.722Z" transform="translate(-103.957 -1293.303)" fill="#fff"/>
  <path id="Path_74" data-name="Path 74" d="M254.074,1293.327c-5.392,0-10.784.078-16.173-.031a3.933,3.933,0,0,0-4.27,4.249c.081,11.114.035,22.228.036,33.342q0,16.913,0,33.825a3.536,3.536,0,0,0,3.525,3.8q8.69.057,17.381,0a3.491,3.491,0,0,0,3.534-3.541c.011-.268.011-.537.011-.806q0-33.382,0-66.764Q258.122,1293.332,254.074,1293.327Z" transform="translate(-91.262 -1293.295)" fill="#fff"/>
  <path id="Path_75" data-name="Path 75" d="M144.5,1424.41c-.777.018-1.556-.023-2.333.009-.615.025-.881-.2-.853-.835.036-.8.029-1.611-.009-2.414a.865.865,0,0,0-.313-.65,1.027,1.027,0,0,0-1.587,1c0,.429,0,.859,0,1.288,0,1.554,0,1.537-1.571,1.623a1,1,0,0,0-.756.383c-.371.9.016,1.412.988,1.416a4.65,4.65,0,0,0,.563,0c.585-.068.766.216.71.756-.1.987-.157,1.98-.294,2.963a19.243,19.243,0,0,1-2.62,7.547c-.117.191-.321.441-.5.458-1.06.1-2.128.125-3.191.2-.549.041-.7-.219-.7-.715s.007-.925.693-.9c.777.026,1.556-.011,2.333.008.549.013.765-.22.771-.768.006-.563-.24-.771-.773-.764-.778.012-1.555,0-2.334,0-.387,0-.681-.07-.685-.567,0-.512.263-.642.708-.637.885.011,1.771-.023,2.654.011.613.023.883-.192.876-.827-.02-1.745-.016-3.489,0-5.234,0-.547-.219-.776-.77-.763-.884.022-1.769,0-2.654,0-.384,0-.784.024-.8-.535s.38-.556.768-.557c.939,0,1.877-.021,2.816,0,.6.015.8-.257.8-.828s-.187-.854-.79-.842c-.938.02-1.877.014-2.816,0-.7-.012-.967-.313-.744-.955a1.079,1.079,0,0,1,.757-.507c.988-.161,1.989-.242,3-.355-.335-1.427-.589-1.588-1.762-1.5-2,.149-4.012.258-6.019.362-.66.034-1.323.005-2.041.005.092,1.556.24,1.707,1.5,1.7.617,0,1.234-.016,1.85-.032.43-.01.814.005.839.593.026.616-.344.7-.827.7-1.126-.005-2.253.016-3.379,0-.621-.011-.761.3-.764.854,0,.578.191.831.793.817,1.152-.027,2.306-.008,3.459-.005.373,0,.792.058.673.537a.942.942,0,0,1-.69.531,22.733,22.733,0,0,1-2.492.021c-.491-.014-.753.13-.749.671q.02,2.738,0,5.476c0,.535.246.691.745.676.857-.025,1.716,0,2.574-.006.419,0,.653.147.653.608s-.267.593-.67.593c-.8,0-1.609.015-2.413,0-.528-.009-.786.179-.777.752.009.539.194.8.754.778.7-.02,1.395.012,2.092-.008.592-.017,1.038.019,1.042.825,0,.731-.243,1.017-.97,1.014-1.018,0-2.036.071-3.055.088-.469.008-.822.1-.712.675.1.51-.071,1.243.839,1.16,2.963-.271,5.928-.525,8.885-.85a1.455,1.455,0,0,1,1.375.38c.435.455.781.362,1.046-.19.66-1.377,1.4-2.721,1.971-4.135a27.957,27.957,0,0,0,1.6-8.43c.067-.853.164-.866,1.421-.855.727.006.748.417.735.944-.067,2.978-.1,5.958-.2,8.934-.071,2.151-.109,2.15-2.272,2.162-.026,0-.053,0-.08,0-.405-.014-.568.149-.539.583.094,1.389.225,1.532,1.634,1.547a8.592,8.592,0,0,0,1.125-.042,1.857,1.857,0,0,0,1.758-1.511,6.583,6.583,0,0,0,.234-1.263c.094-4.132.163-8.264.248-12.4C145.283,1424.619,145.042,1424.4,144.5,1424.41Zm-15.38,7.971c-.469.008-1.015.091-1.018-.655,0-.832.626-.6,1.033-.659.513.029,1.07-.115,1.067.652C130.2,1432.537,129.6,1432.374,129.119,1432.381Zm.016-2.574c-.508,0-1.039.07-1.049-.719-.01-.823.553-.682,1.1-.7.4.064,1.014-.208,1.03.649C130.229,1429.879,129.676,1429.811,129.136,1429.807Zm4.71,2.534a3.658,3.658,0,0,1-1.034.045c-.46.015-.776-.1-.78-.659s.319-.673.777-.654c.134.005.268,0,.4,0v.014c.214,0,.481-.079.629.02a.936.936,0,0,1,.431.618A.8.8,0,0,1,133.845,1432.341Zm-1.087-3.954a5.888,5.888,0,0,0,.643,0c.474-.01.918-.044.921.664s-.4.789-.941.754c-.08-.005-.161,0-.3,0-.405-.056-1.025.193-1.054-.652C132.012,1428.612,132.184,1428.336,132.759,1428.387Z" transform="translate(-66.873 -1321.533)" fill="#fff"/>
  <path id="Path_76" data-name="Path 76" d="M366.8,1438.151c-.079-.016-.159-.026-.237-.045a10.99,10.99,0,0,1-4.826-2.08,8.642,8.642,0,0,1-.954-1.227c.575-.036.861-.068,1.147-.068,1.8-.006,3.594-.028,5.391.006.7.013.838-.3.848-.924.011-.662-.2-.908-.875-.881-1.07.044-2.144.013-3.218.012-1.528,0-3.057-.016-4.586,0-.6.008-.808-.192-.709-.818.1-.641.348-.919,1.04-.909,2.413.035,4.827,0,7.241.019.662.005,1.158-.024,1.1-.919-.06-.96-.07-1.028-1.071-1.029-2.36,0-4.72-.007-7.08,0-.546,0-.936-.063-.928-.769s.419-.754.952-.75c1.8.01,3.594-.02,5.39.016.709.013.927-.25.929-.943s-.207-.951-.921-.936c-1.85.039-3.7-.006-5.551.02-.67.009-.925-.314-.731-.879a1.018,1.018,0,0,1,.8-.423c2.118-.035,4.238-.007,6.356-.035a1.034,1.034,0,0,0,.792-.344c.418-.821-.022-1.461-.945-1.467-.832-.006-1.663.006-2.495-.006-.274,0-.548-.061-.981-.112.292-.39.484-.638.666-.893s.343-.506.514-.76c-1.483-.977-1.867-.955-2.692.4a2.352,2.352,0,0,1-2.613,1.366,1.31,1.31,0,0,0-.4,0,2.16,2.16,0,0,1-2.692-1.4,1.829,1.829,0,0,0-.527-.7.848.848,0,0,0-.625-.229,17.185,17.185,0,0,0-1.638.587c.408.58.725,1.028,1.042,1.477l-.084.268c-1.142,0-2.285.025-3.426-.009-.708-.021-1.009.2-1,.967s.372.886,1,.879c1.985-.02,3.97-.012,5.954-.008.45,0,.949-.078.963.635.016.772-.515.674-1,.675-1.689,0-3.38.032-5.068-.012-.734-.019-.909.272-.907.947,0,.692.226.949.936.933,1.742-.04,3.487,0,5.23-.018.58-.006.818.2.8.8-.019.654-.392.72-.9.718-2.253-.009-4.505,0-6.758,0-1.044,0-1.041.048-1.1.993-.055.847.361.966,1.065.957,2.172-.03,4.345-.016,6.517-.009.865,0,.964.168.823,1.012-.1.6-.457.7-.973.7-2.119-.012-4.238.012-6.357-.012-.669-.008-1.088.028-1.092.916,0,.942.518.882,1.133.88q2.655-.012,5.31,0a7.641,7.641,0,0,1,.917.116,3.665,3.665,0,0,1-1.941,2.151,11.624,11.624,0,0,1-4.61,1.3c-.324.038-.641.13-.968.2.546,1.894.689,1.986,2.409,1.651.158-.031.319-.046.475-.084,2.933-.705,5.58-1.811,6.867-4.856.072-.172.337-.425.428-.393a.875.875,0,0,1,.462.462,6.058,6.058,0,0,0,2.141,2.762,15.612,15.612,0,0,0,5.63,2.279,1.039,1.039,0,0,0,.883-.323C368.613,1438.334,368.574,1438.521,366.8,1438.151Z" transform="translate(-117.035 -1321.526)" fill="#fff"/>
  <path id="Path_77" data-name="Path 77" d="M220.517,1421.441c-1.5.014-3,.023-4.5-.015-.24-.005-.677-.261-.676-.4,0-.755-.593-.568-.975-.688a.833.833,0,0,0-1.073.422,24.758,24.758,0,0,1-1.786,2.458c-.611.742-.624.769.143,1.342a1.245,1.245,0,0,1,.529.774c.011,1.848-.029,3.7-.091,5.544-.023.706.26.943.948.929,1.582-.033,3.164-.009,4.747-.007.386,0,.818-.006.822.527.013,1.8.034,3.6-.024,5.392-.029.887-.763.788-1.39.8-.663.013-.8-.345-.8-.919.019-1.368-.016-2.738.013-4.106.012-.586-.181-.807-.784-.8q-3.942.035-7.884,0c-.613-.005-.781.23-.77.807.028,1.5.006,3.006.008,4.509,0,1.058,0,1.061,1.081,1.063,2.333,0,4.666-.018,7,.025.322.006.881.278.916.5.138.842.631.96,1.323.905.346-.028.7,0,1.045-.008,1.538-.03,2.124-.593,2.19-2.149.032-.75.008-1.5.009-2.254q0-4.953,0-9.9c0-.4.058-.891-.519-.916-1.335-.058-2.672-.073-4.009-.089-1.069-.013-2.138,0-3.413,0,.454-.586.774-.943,1.031-1.342a1.333,1.333,0,0,1,1.4-.708c.659.088.64.646.784,1.078s.309.761.872.757c1.379-.012,1.49-.144,1.035-1.441a3.112,3.112,0,0,1-.035-.4c.973,0,1.9-.023,2.818.008.638.022.994-.107.987-.874S221.09,1421.436,220.517,1421.441Zm-11.062,12.78q2.242-.068,4.486,0c.209.007.407.352.61.541-.212.146-.418.4-.639.418-.745.052-1.495.019-2.243.019-.722,0-1.446.041-2.162-.019-.243-.021-.464-.29-.7-.446C209.026,1434.558,209.236,1434.228,209.456,1434.222Zm4.431,3.365c-.745.062-1.5.023-2.247.023-.722,0-1.448.041-2.166-.023-.237-.021-.451-.31-.675-.477.226-.2.445-.553.677-.561,1.47-.052,2.944-.053,4.414,0,.229.009.446.37.669.568C214.337,1437.281,214.123,1437.568,213.887,1437.587Zm.645-10.712c1.176-.047,2.356-.053,3.532-.005.186.008.358.348.537.534-.2.159-.389.432-.605.456a16.284,16.284,0,0,1-1.765.022v-.006a14.988,14.988,0,0,1-1.683-.023.49.49,0,0,1-.016-.977Zm.071,2.321c1.15-.05,2.3-.052,3.454,0,.188.008.361.344.542.527-.2.169-.38.456-.6.482a13.688,13.688,0,0,1-1.685.023,13.372,13.372,0,0,1-1.686-.023c-.212-.026-.389-.32-.583-.492C214.234,1429.531,214.412,1429.2,214.6,1429.2Z" transform="translate(-85.263 -1321.514)" fill="#fff"/>
  <path id="Path_78" data-name="Path 78" d="M71.757,1430.233h-2.8c.3-.586.646-.965.622-1.32-.022-.323-.45-.617-.625-.834,1.144-1.379,2.3-2.712,3.372-4.107a3.345,3.345,0,0,0,.449-1.41c.084-.457-.17-.686-.653-.68-.966.014-1.931,0-2.9,0H67.162l.494-1.427c-.818.015-1.611-.514-2.082.211a12.2,12.2,0,0,1-4.207,3.783.759.759,0,0,0-.263.683c.439,1.075.913,1.209,1.885.593a5.179,5.179,0,0,0,1.241-.882,3.93,3.93,0,0,1,3.753-1.285c.424.046.858,0,1.286.012.252.009.5.061,1.016.127-.521.625-.878,1.1-1.285,1.533-1.238,1.311-1.245,1.3-2.626.22-.105-.083-.219-.157-.317-.248-.633-.587-1.073-.152-1.486.3-.5.542.112.719.366,1,.143.158.32.285.479.43.653.593.653.761-.15,1.106-1.056.455-2.151.821-3.212,1.268-.246.1-.6.381-.6.57a1.146,1.146,0,0,0,1.677,1.105c.826-.314,1.639-.666,2.451-1.019.454-.2.892-.43,1.337-.646l.166.211a10.754,10.754,0,0,1-1.668,1.772c-1.345.911-2.8,1.664-4.2,2.495-.211.125-.518.3-.546.484a1.215,1.215,0,0,0,1.512,1.123,14.29,14.29,0,0,0,4.639-2.838,2.012,2.012,0,0,1,1.1-.548c.769-.085,1.553-.018,2.33-.026.573-.005.763.26.484.751-.409.72-.869,1.412-1.312,2.113-.434.686-.9.727-1.461.113a5.363,5.363,0,0,0-.885-.694c-.717-.512-.982-.453-1.6.291-.545.656.181.79.446,1.111a2.48,2.48,0,0,0,.3.264c.866.747.862,1-.257,1.339-1.586.479-3.214.814-4.824,1.212-.315.078-.628.166-.959.254.715,1.583,1.028,1.822,2.229,1.524,1.324-.327,2.641-.7,3.937-1.132,3.47-1.149,5.43-3.788,6.722-7.023C73.637,1430.73,73.241,1430.233,71.757,1430.233Z" transform="translate(-52.239 -1321.515)" fill="#fff"/>
  <path id="Path_79" data-name="Path 79" d="M442.313,1429.754c-.006-.207-.15-.562-.284-.589-.732-.148-.638-.68-.632-1.186.023-2.066.03-4.132.081-6.2.018-.7-.239-.954-.937-.931-1.259.041-2.52.027-3.78.009-.646-.01-.736.356-.732.883s.08.9.729.886a15.723,15.723,0,0,1,2.089.029c.222.024.413.351.618.539-.2.191-.389.521-.612.548a13.528,13.528,0,0,1-1.927.031c-.534-.012-.689.258-.688.75s.144.765.684.751a14.621,14.621,0,0,1,1.927.031c.215.023.4.31.6.476-.2.159-.391.437-.6.457a18.739,18.739,0,0,1-2.009.029c-.531-.007-.6.318-.6.742s.013.829.6.828,1.18.006,1.769.007c.452,0,.876.005.863.653-.012.612-.429.592-.839.587-1.446-.017-2.892-.065-4.338-.062-2.6.006-5.2.041-7.795.063-.439,0-.814-.063-.8-.642.015-.523.354-.6.766-.6.59,0,1.18-.016,1.769,0,.556.016.909-.091.913-.786,0-.671-.284-.833-.874-.8a10.588,10.588,0,0,1-1.846-.022c-.257-.033-.48-.334-.718-.514.247-.177.479-.477.744-.509a12.439,12.439,0,0,1,1.927-.026c.552.019.756-.209.759-.762,0-.576-.257-.756-.782-.747a20.342,20.342,0,0,1-2.089-.033c-.2-.016-.539-.31-.519-.43a.972.972,0,0,1,.456-.608,2.331,2.331,0,0,1,.788-.109c.736-.093,1.472-.187,2.258-.288-.294-1.592-.465-1.7-1.814-1.494-.927.145-1.858.287-2.793.339-.71.039-.9.344-.888,1.01.033,1.9.016,3.81.009,5.716,0,.562.181,1.209-.639,1.441-.111.031-.186.37-.19.568-.019.993-.029,1.987.009,2.978a.782.782,0,0,0,.362.6c1.078.386,1.6.007,1.6-1.106,0-.107,0-.215,0-.322.008-1.076.008-1.084,1.069-1.086q6.194,0,12.388,0c1.871,0,1.9,0,1.941,1.861.016.761.463.716.959.7s1.078.146,1.062-.685C442.314,1431.74,442.343,1430.747,442.313,1429.754Z" transform="translate(-133.853 -1321.594)" fill="#fff"/>
  <path id="Path_80" data-name="Path 80" d="M58.448,1431.142c-.517-.545-1.071-1.059-1.54-1.643a3.313,3.313,0,0,1-.362-.989,4.716,4.716,0,0,1,.853-.257,7.173,7.173,0,0,1,1.2-.008c.541.03.774-.187.786-.744.019-.948-.073-1.073-1.013-1.085a7.143,7.143,0,0,0-.884.005c-.769.089-1.028-.222-1.017-1,.028-2.037-.005-2.043,1.914-2.606.408-.12.771-.281.536-.76-.226-.461-.095-1.314-1.03-1.135-1.84.352-3.679.705-5.513,1.085a.7.7,0,0,0-.473.4c-.183.983.278,1.449,1.282,1.354.187-.018.373-.041.559-.066.4-.054.736-.06.811.49.178,1.3.012,2.113-.51,2.209a2.8,2.8,0,0,1-.481.018c-.482,0-.966.022-1.447,0-.671-.032-.8.339-.791.912.008.549.07.955.771.922s1.419-.008,2.268-.008a5.558,5.558,0,0,1-.28.836c-.811,1.448-1.595,2.914-2.471,4.322a2.041,2.041,0,0,0,.4,2.846l2.322-3.829a1.824,1.824,0,0,1,.218.934c0,2.067.029,4.132-.01,6.2-.013.729.213.993.959.985.706-.008,1.007-.184.993-.955-.043-2.253-.017-4.507-.011-6.76,0-.3.049-.6.074-.9l.188-.054,1.445,1.818C59.488,1432.48,59.5,1432.253,58.448,1431.142Z" transform="translate(-50.218 -1321.651)" fill="#fff"/>
  <path id="Path_81" data-name="Path 81" d="M441.312,1438.707c-1.769.026-3.538.011-5.306,0-.274,0-.547-.038-.821-.058l-.04-.212c.226-.1.449-.215.68-.306.9-.349,1.8-.7,2.7-1.031.69-.253.649-.844.509-1.338-.063-.222-.549-.455-.845-.457-3.564-.031-7.128-.014-10.693-.026-.576,0-.9.141-.906.806,0,.688.358.781.918.778,2.09-.015,4.181-.005,6.271,0,.33,0,.66.04.99.06l.026.207c-.71.2-1.425.383-2.127.607-.267.085-.653.2-.729.4-.214.568-.618.577-1.092.576-2.2-.007-4.4.008-6.592-.01-.585-.005-.89.152-.908.807-.019.691.212.956.923.947,2.251-.031,4.5,0,6.753-.016.579,0,.811.2.82.795.009.675-.228,1.02-.93.975-.4-.025-.8-.062-1.2-.05-.332.009-.812-.227-.867.391-.066.747.268,1.248.859,1.26.884.018,1.77.026,2.653-.009,1.069-.043,1.531-.542,1.573-1.625a5.8,5.8,0,0,0,0-.8c-.068-.7.222-.949.925-.939,2.143.032,4.287-.006,6.431.022.67.008.977-.177.964-.906C442.242,1438.863,441.937,1438.7,441.312,1438.707Z" transform="translate(-133.949 -1324.849)" fill="#fff"/>
  <path id="Path_82" data-name="Path 82" d="M294.776,1423.8c-1.636.031-3.273,0-4.909.013-.556,0-.732-.2-.531-.738s.4-1.112.55-1.681a.868.868,0,0,0-.055-.67,1.382,1.382,0,0,0-2.029.432,13.628,13.628,0,0,1-2.56,4.976c-.8.953-.777.975.005,1.95.346.431.638.442.969.037.509-.622.979-1.281,1.525-1.868a1.51,1.51,0,0,1,.921-.5c1.42-.053,2.842-.015,4.264-.027.5,0,.76.177.733.706-.163,3.27-.287,6.542-.5,9.808-.08,1.23-.663,1.757-1.9,1.9-.74.088-1.5.023-2.245.048-.226.008-.536.013-.659.152-.371.418.228,1.831.79,1.849a22.665,22.665,0,0,0,2.81-.048c2.343-.216,3.2-1.054,3.38-3.384.165-2.141.225-4.289.317-6.145,0-2.17-.022-4.05.012-5.928C295.676,1424.018,295.436,1423.791,294.776,1423.8Z" transform="translate(-102.742 -1321.551)" fill="#fff"/>
  <path id="Path_83" data-name="Path 83" d="M209.171,1433.222c.742.018,1.068-.2,1.041-1-.05-1.526-.05-3.057,0-4.583.026-.8-.294-1.017-1.04-1-2.082.033-4.166.011-6.25.011-1.173,0-1.177,0-1.178,1.144q0,3.257,0,6.515c0,2.2.019,4.4-.01,6.595-.009.69.149,1.028.932,1.027.767,0,1.035-.25,1.021-1.025-.04-2.251,0-4.5-.026-6.755-.009-.692.229-.959.931-.943C206.117,1433.235,207.645,1433.185,209.171,1433.222Zm-4.916-4.938c1.15-.048,2.3-.047,3.455,0,.19.009.366.343.549.527-.2.16-.391.432-.608.458a14.351,14.351,0,0,1-1.686.022,14.152,14.152,0,0,1-1.686-.023c-.21-.026-.389-.309-.583-.474C203.882,1428.617,204.062,1428.292,204.255,1428.284Zm1.662,3.353a10.578,10.578,0,0,1-1.593-.024c-.23-.035-.418-.341-.626-.524.192-.169.378-.475.577-.484,1.117-.049,2.237-.055,3.353,0,.218.01.421.339.631.52-.221.171-.426.459-.666.491A12.529,12.529,0,0,1,205.916,1431.637Z" transform="translate(-84.085 -1322.926)" fill="#fff"/>
  <path id="Path_84" data-name="Path 84" d="M282.592,1429.279c-.156-.5-.27-.967-1.039-.7-.692.239-.807.579-.566,1.195a4.987,4.987,0,0,1,.279,1,.673.673,0,0,1-.129.5,4.88,4.88,0,0,1-2.889.223c.142-.2.279-.389.412-.581,1.3-1.9,2.638-3.776,3.9-5.7.756-1.156.67-1.25-.638-1.649a.666.666,0,0,0-.913.381c-.183.358-.385.706-.584,1.056a2.269,2.269,0,0,1-2.837.963c.217-.388.4-.705.575-1.031.584-1.115,1.176-2.227,1.732-3.357a.907.907,0,0,0,.057-.734,1.218,1.218,0,0,0-1.988.2c-.784,1.585-1.576,3.165-2.413,4.722a1.271,1.271,0,0,1-.818.642c-.806.047-.815.394-.67,1.048s.452.825,1.069.727c.925-.147,1.858-.249,2.79-.36.193-.024.392,0,.87,0l-2.4,3.261a1.72,1.72,0,0,1-1.666.9c-.518-.063-.626.243-.518.718.252,1.108.337,1.233,1.438,1.1,1.755-.2,3.5-.488,5.251-.72.386-.052.879-.337,1.065.314.235.821.787.391,1.238.315.6-.1.6-.515.455-.976C283.3,1431.585,282.951,1430.43,282.592,1429.279Z" transform="translate(-100.343 -1321.546)" fill="#fff"/>
  <path id="Path_85" data-name="Path 85" d="M202.851,1423.6a1.46,1.46,0,0,1,1.693-.383c.288.087.529.607.628.975.16.6.422.913,1.005.775,1.236-.079,1.284-.124.993-1.191-.119-.438.024-.611.441-.62.455-.01.911-.028,1.366-.006.56.026.835-.156.827-.778-.007-.591-.157-.9-.814-.891-1.205.023-2.413.02-3.617-.026a1.4,1.4,0,0,1-.694-.41c-.208-.175-.353-.56-.555-.581-.435-.046-1.042-.08-1.307.17-1.007.949-1.917,2-2.829,3.046a.639.639,0,0,0,.019.625c.923.908,1.269.9,2.179-.007A8.056,8.056,0,0,0,202.851,1423.6Z" transform="translate(-83.676 -1321.548)" fill="#fff"/>
  <path id="Path_86" data-name="Path 86" d="M437.227,1427.2c.2-.162.469-.61.41-.681a1.671,1.671,0,0,0-.874-.608c-.232-.042-.573.217-.784.425-.575.569-1.142.764-1.8.156a2.945,2.945,0,0,0-.341-.209c-.526-.356-.859-.014-1.152.346-.355.438.075.6.336.8.147.114.311.2.649.423-.518.245-.748.367-.988.465-.9.368-.975.555-.35,1.273a.94.94,0,0,0,.787.212,3.8,3.8,0,0,0,1.156-.542,1.026,1.026,0,0,1,1.486.208,2.52,2.52,0,0,0,.415.378c.524.358.722-.165.948-.426.132-.153.17-.635.074-.7C436.343,1428.17,436.577,1427.718,437.227,1427.2Z" transform="translate(-135.877 -1322.765)" fill="#fff"/>
  <path id="Path_87" data-name="Path 87" d="M431.69,1423.686c.225.463.421,1.068,1.17.737a7.287,7.287,0,0,0,.88-.4c.745-.458,1.414-.691,2.113.139.37.439.7-.047.887-.318.143-.2.236-.692.13-.777-.646-.516-.263-.814.122-1.214.167-.172.3-.655.2-.751-.378-.376-.859-.738-1.377-.179a1.114,1.114,0,0,1-1.751.062,3.323,3.323,0,0,0-.546-.338c-.559-.311-.881.1-1.111.467-.074.119.2.5.362.713a4.8,4.8,0,0,0,.712.584c-.515.233-.868.4-1.224.552C431.941,1423.108,431.415,1423.121,431.69,1423.686Z" transform="translate(-135.808 -1321.572)" fill="#fff"/>
  <path id="Path_88" data-name="Path 88" d="M291.024,1436.231c.112-.075.215-.161.331-.228a.651.651,0,0,0,.243-1.017q-1.1-1.916-2.2-3.838a4.786,4.786,0,0,1-.246-.6l-.242.242a1.12,1.12,0,0,0-1,1.592c.542,1.137,1.09,2.273,1.6,3.422C290.012,1436.92,289.995,1436.927,291.024,1436.231Z" transform="translate(-103.451 -1323.795)" fill="#fff"/>
  <path id="Path_89" data-name="Path 89" d="M275.863,1438.67c-.633-.093-.9.1-1.014.764a27,27,0,0,1-.782,3.517c-.329,1.068.539.889,1.008,1.116.546.265.865.021.963-.546.225-1.289.443-2.58.664-3.869C276.689,1438.819,276.632,1438.782,275.863,1438.67Z" transform="translate(-100.344 -1325.596)" fill="#fff"/>
  <path id="Path_90" data-name="Path 90" d="M280.684,1439.156c-.1-.65-.643-.5-1.092-.459-.467.039-.641.284-.6.75.094,1.118.175,2.238.236,3.358.028.516.243.741.846.615.3-.179,1.107.248,1.049-.607C281.039,1441.589,280.871,1440.369,280.684,1439.156Z" transform="translate(-101.467 -1325.597)" fill="#fff"/>
  <path id="Path_91" data-name="Path 91" d="M283.509,1438.431a.817.817,0,0,0-.413.681,25.816,25.816,0,0,0,.6,2.909c.053.2.442.493.614.456.451-.1,1.06-.087,1.159-.868-.311-.975-.609-2.034-1.015-3.05C284.392,1438.4,283.8,1438.346,283.509,1438.431Z" transform="translate(-102.391 -1325.539)" fill="#fff"/>
</svg>
